<svg width="1366" height="768" viewBox="0 0 1366 768" fill="none" xmlns="http://www.w3.org/2000/svg">
<rect width="1366" height="768" fill="#7B1FA2"/>
<circle cx="301.5" cy="309.5" r="16.5" fill="white"/>
<circle cx="509.5" cy="301.5" r="16.5" fill="white"/>
<line x1="304.014" y1="318.378" x2="333.695" y2="429.736" stroke="white" stroke-width="18" stroke-linecap="round" stroke-linejoin="round"/>
<line x1="373.936" y1="365.385" x2="335.296" y2="428.032" stroke="white" stroke-width="18" stroke-linecap="round" stroke-linejoin="round"/>
<line x1="506.366" y1="308.275" x2="425.275" y2="450.634" stroke="white" stroke-width="18" stroke-linecap="round" stroke-linejoin="round"/>
<line x1="375.662" y1="362.326" x2="424.579" y2="451.786" stroke="white" stroke-width="18" stroke-linecap="round" stroke-linejoin="round"/>
<path d="M588.734 405.164H548.234V447H527.141V344.625H593.797V361.711H548.234V388.148H588.734V405.164ZM623.261 447H602.87V370.922H623.261V447ZM601.675 351.234C601.675 348.188 602.683 345.68 604.698 343.711C606.761 341.742 609.55 340.758 613.065 340.758C616.534 340.758 619.3 341.742 621.362 343.711C623.425 345.68 624.456 348.188 624.456 351.234C624.456 354.328 623.401 356.859 621.292 358.828C619.229 360.797 616.487 361.781 613.065 361.781C609.643 361.781 606.878 360.797 604.768 358.828C602.706 356.859 601.675 354.328 601.675 351.234ZM655.888 370.922L656.521 379.711C661.959 372.914 669.248 369.516 678.388 369.516C686.451 369.516 692.451 371.883 696.388 376.617C700.326 381.352 702.342 388.43 702.435 397.852V447H682.115V398.344C682.115 394.031 681.177 390.914 679.302 388.992C677.427 387.023 674.31 386.039 669.951 386.039C664.232 386.039 659.943 388.477 657.084 393.352V447H636.763V370.922H655.888ZM759.11 447C758.173 445.172 757.493 442.898 757.071 440.18C752.149 445.664 745.751 448.406 737.876 448.406C730.423 448.406 724.235 446.25 719.313 441.938C714.438 437.625 712.001 432.188 712.001 425.625C712.001 417.562 714.977 411.375 720.93 407.062C726.93 402.75 735.579 400.57 746.876 400.523H756.227V396.164C756.227 392.648 755.313 389.836 753.485 387.727C751.704 385.617 748.868 384.562 744.977 384.562C741.555 384.562 738.86 385.383 736.891 387.023C734.969 388.664 734.008 390.914 734.008 393.773H713.688C713.688 389.367 715.048 385.289 717.766 381.539C720.485 377.789 724.329 374.859 729.298 372.75C734.266 370.594 739.844 369.516 746.032 369.516C755.407 369.516 762.837 371.883 768.321 376.617C773.852 381.305 776.618 387.914 776.618 396.445V429.422C776.665 436.641 777.673 442.102 779.641 445.805V447H759.11ZM742.305 432.867C745.305 432.867 748.071 432.211 750.602 430.898C753.133 429.539 755.008 427.734 756.227 425.484V412.406H748.633C738.462 412.406 733.048 415.922 732.391 422.953L732.321 424.148C732.321 426.68 733.212 428.766 734.993 430.406C736.774 432.047 739.212 432.867 742.305 432.867ZM808.05 370.922L808.683 379.711C814.121 372.914 821.41 369.516 830.55 369.516C838.613 369.516 844.613 371.883 848.55 376.617C852.488 381.352 854.503 388.43 854.597 397.852V447H834.277V398.344C834.277 394.031 833.339 390.914 831.464 388.992C829.589 387.023 826.472 386.039 822.113 386.039C816.394 386.039 812.105 388.477 809.246 393.352V447H788.925V370.922H808.05ZM898.827 432.023C902.577 432.023 905.623 430.992 907.967 428.93C910.311 426.867 911.53 424.125 911.623 420.703H930.678C930.631 425.859 929.225 430.594 926.459 434.906C923.694 439.172 919.897 442.5 915.069 444.891C910.288 447.234 904.991 448.406 899.178 448.406C888.303 448.406 879.725 444.961 873.444 438.07C867.163 431.133 864.022 421.57 864.022 409.383V408.047C864.022 396.328 867.139 386.977 873.373 379.992C879.608 373.008 888.163 369.516 899.038 369.516C908.553 369.516 916.17 372.234 921.889 377.672C927.655 383.062 930.584 390.258 930.678 399.258H911.623C911.53 395.32 910.311 392.133 907.967 389.695C905.623 387.211 902.53 385.969 898.686 385.969C893.952 385.969 890.366 387.703 887.928 391.172C885.538 394.594 884.342 400.172 884.342 407.906V410.016C884.342 417.844 885.538 423.469 887.928 426.891C890.319 430.312 893.952 432.023 898.827 432.023ZM974.415 448.406C963.259 448.406 954.165 444.984 947.134 438.141C940.15 431.297 936.658 422.18 936.658 410.789V408.82C936.658 401.18 938.134 394.359 941.087 388.359C944.04 382.312 948.212 377.672 953.603 374.438C959.04 371.156 965.228 369.516 972.165 369.516C982.572 369.516 990.751 372.797 996.704 379.359C1002.7 385.922 1005.7 395.227 1005.7 407.273V415.57H957.259C957.915 420.539 959.884 424.523 963.165 427.523C966.493 430.523 970.689 432.023 975.751 432.023C983.579 432.023 989.697 429.188 994.103 423.516L1004.09 434.695C1001.04 439.008 996.915 442.383 991.712 444.82C986.509 447.211 980.743 448.406 974.415 448.406ZM972.095 385.969C968.064 385.969 964.783 387.328 962.251 390.047C959.767 392.766 958.173 396.656 957.47 401.719H985.736V400.102C985.642 395.602 984.423 392.133 982.079 389.695C979.736 387.211 976.408 385.969 972.095 385.969ZM1055.63 425.977C1055.63 423.492 1054.39 421.547 1051.9 420.141C1049.46 418.688 1045.53 417.398 1040.09 416.273C1022 412.477 1012.95 404.789 1012.95 393.211C1012.95 386.461 1015.74 380.836 1021.32 376.336C1026.94 371.789 1034.28 369.516 1043.32 369.516C1052.98 369.516 1060.69 371.789 1066.46 376.336C1072.27 380.883 1075.18 386.789 1075.18 394.055H1054.86C1054.86 391.148 1053.92 388.758 1052.04 386.883C1050.17 384.961 1047.24 384 1043.25 384C1039.83 384 1037.18 384.773 1035.31 386.32C1033.43 387.867 1032.5 389.836 1032.5 392.227C1032.5 394.477 1033.55 396.305 1035.66 397.711C1037.82 399.07 1041.43 400.266 1046.49 401.297C1051.55 402.281 1055.82 403.406 1059.29 404.672C1070.02 408.609 1075.39 415.43 1075.39 425.133C1075.39 432.07 1072.41 437.695 1066.46 442.008C1060.5 446.273 1052.82 448.406 1043.39 448.406C1037.02 448.406 1031.35 447.281 1026.38 445.031C1021.46 442.734 1017.59 439.617 1014.78 435.68C1011.96 431.695 1010.56 427.406 1010.56 422.812H1029.82C1030.01 426.422 1031.35 429.188 1033.83 431.109C1036.32 433.031 1039.64 433.992 1043.82 433.992C1047.71 433.992 1050.64 433.266 1052.61 431.812C1054.62 430.312 1055.63 428.367 1055.63 425.977Z" fill="white"/>
</svg>
